<svg width="10" height="10" viewBox="0 0 10 10" fill="none" xmlns="http://www.w3.org/2000/svg">
<path fill-rule="evenodd" clip-rule="evenodd" d="M0.162257 0.162257C0.266285 0.0583586 0.4073 0 0.554326 0C0.701352 0 0.842366 0.0583586 0.946394 0.162257L9.82342 9.03928C9.87793 9.09007 9.92165 9.15132 9.95197 9.21938C9.98229 9.28744 9.9986 9.3609 9.99991 9.4354C10.0012 9.50989 9.98753 9.58389 9.95962 9.65297C9.93172 9.72206 9.89018 9.78482 9.8375 9.8375C9.78482 9.89018 9.72206 9.93172 9.65297 9.95962C9.58389 9.98753 9.50989 10.0012 9.4354 9.99991C9.3609 9.9986 9.28744 9.98229 9.21938 9.95197C9.15132 9.92165 9.09007 9.87793 9.03928 9.82342L0.162257 0.946394C0.0583586 0.842366 0 0.701352 0 0.554326C0 0.4073 0.0583586 0.266285 0.162257 0.162257Z" fill="#002544"/>
<path fill-rule="evenodd" clip-rule="evenodd" d="M9.82337 0.162257C9.92727 0.266285 9.98563 0.4073 9.98563 0.554326C9.98563 0.701352 9.92727 0.842366 9.82337 0.946394L0.946349 9.82342C0.841175 9.92142 0.702067 9.97477 0.558332 9.97224C0.414597 9.9697 0.277458 9.91147 0.175807 9.80982C0.0741553 9.70817 0.0159281 9.57103 0.0133921 9.4273C0.0108561 9.28356 0.0642091 9.14445 0.162211 9.03928L9.03923 0.162257C9.14326 0.0583586 9.28428 0 9.4313 0C9.57833 0 9.71934 0.0583586 9.82337 0.162257Z" fill="#002544"/>
</svg>
